<?xml version="1.0" encoding="UTF-8" standalone="no"?>
<!-- Created with Inkscape (http://www.inkscape.org/) -->

<svg
   width="1080"
   height="1080"
   viewBox="0 0 1080 1080"
   version="1.1"
   id="svg5"
   inkscape:version="1.1.1 (3bf5ae0d25, 2021-09-20)"
   sodipodi:docname="IV-2022.svg"
   inkscape:export-filename="/home/luisvulcanis/Documentos/PROF-LUIS-VULCANIS/ARTE/IDENTIDADE-VISUAL/logo-22-1080.png"
   inkscape:export-xdpi="96"
   inkscape:export-ydpi="96"
   xmlns:inkscape="http://www.inkscape.org/namespaces/inkscape"
   xmlns:sodipodi="http://sodipodi.sourceforge.net/DTD/sodipodi-0.dtd"
   xmlns:xlink="http://www.w3.org/1999/xlink"
   xmlns="http://www.w3.org/2000/svg"
   xmlns:svg="http://www.w3.org/2000/svg">
  <sodipodi:namedview
     id="namedview7"
     pagecolor="#ffffff"
     bordercolor="#999999"
     borderopacity="1"
     inkscape:pageshadow="0"
     inkscape:pageopacity="0"
     inkscape:pagecheckerboard="0"
     inkscape:document-units="px"
     showgrid="false"
     showguides="true"
     inkscape:zoom="0.48981481"
     inkscape:cx="538.97921"
     inkscape:cy="540"
     inkscape:window-width="1366"
     inkscape:window-height="711"
     inkscape:window-x="0"
     inkscape:window-y="0"
     inkscape:window-maximized="1"
     inkscape:current-layer="layer1"
     inkscape:guide-bbox="true" />
  <defs
     id="defs2">
    <linearGradient
       inkscape:collect="always"
       id="linearGradient1047">
      <stop
         style="stop-color:#dc8add;stop-opacity:1;"
         offset="0"
         id="stop1043" />
      <stop
         style="stop-color:#dc8add;stop-opacity:0;"
         offset="1"
         id="stop1045" />
    </linearGradient>
    <linearGradient
       inkscape:collect="always"
       id="linearGradient431">
      <stop
         style="stop-color:#613583;stop-opacity:1;"
         offset="0"
         id="stop427" />
      <stop
         style="stop-color:#613583;stop-opacity:0;"
         offset="1"
         id="stop429" />
    </linearGradient>
    <linearGradient
       inkscape:collect="always"
       id="linearGradient3425">
      <stop
         style="stop-color:#613583;stop-opacity:1;"
         offset="0"
         id="stop3421" />
      <stop
         style="stop-color:#613583;stop-opacity:0;"
         offset="1"
         id="stop3423" />
    </linearGradient>
    <linearGradient
       inkscape:collect="always"
       id="linearGradient1672">
      <stop
         style="stop-color:#ffffff;stop-opacity:1;"
         offset="0"
         id="stop1668" />
      <stop
         style="stop-color:#ffffff;stop-opacity:0;"
         offset="1"
         id="stop1670" />
    </linearGradient>
    <linearGradient
       inkscape:collect="always"
       xlink:href="#linearGradient1672"
       id="linearGradient1674"
       x1="529.68835"
       y1="0"
       x2="529.79218"
       y2="437.685"
       gradientUnits="userSpaceOnUse"
       gradientTransform="matrix(0.9253079,0,0,1,38.390069,0)" />
    <linearGradient
       inkscape:collect="always"
       xlink:href="#linearGradient3425"
       id="linearGradient3427"
       x1="582.85144"
       y1="1024.9231"
       x2="581.97107"
       y2="900.89612"
       gradientUnits="userSpaceOnUse" />
    <path
       fill="#29d9c2"
       id="i-2193"
       d="M37,4c-6.07,0-11,4.93-11,11s4.93,11,11,11s11-4.93,11-11S43.07,4,37,4z M32.51,14.29l-3.46-1.21 c0.181-0.74,0.46-1.48,0.86-2.17c0.399-0.69,0.899-1.311,1.46-1.84l2.77,2.399c-0.42,0.34-0.79,0.761-1.08,1.261 C32.78,13.22,32.6,13.75,32.51,14.29z M37,23.18c-0.8,0-1.58-0.12-2.32-0.33l0.69-3.6c0.51,0.19,1.06,0.29,1.63,0.29 s1.12-0.1,1.63-0.29l0.69,3.6C38.58,23.06,37.8,23.18,37,23.18z M37,18.5c-1.93,0-3.5-1.57-3.5-3.5s1.57-3.5,3.5-3.5 s3.5,1.57,3.5,3.5S38.93,18.5,37,18.5z M41.49,14.29c-0.09-0.54-0.271-1.07-0.55-1.56c-0.29-0.5-0.66-0.921-1.08-1.261l2.77-2.399 c0.561,0.529,1.061,1.149,1.46,1.84c0.4,0.689,0.68,1.43,0.86,2.17L41.49,14.29z M24,15c0,7.17-5.83,13-13,13c-1.77,0-3.46-0.36-5-1 v17h36V27c-1.54,0.64-3.23,1-5,1C29.83,28,24,22.17,24,15z M22,40H10V29h12V40z M31,33h-2v7h-2v-7h-2v-2h2v-2h2v2h2V33z M38,35h-2v5 h-2v-5h-2v-2h2v-4h2v4h2V35z M11,16.5c-0.83,0-1.5-0.67-1.5-1.5s0.67-1.5,1.5-1.5s1.5,0.67,1.5,1.5S11.83,16.5,11,16.5z M14.15,38 H12v-7h8v7h-2.15c-0.13-0.3-0.33-0.56-0.58-0.77L18,33l-2.02,3.76C15.15,36.77,14.45,37.28,14.15,38z M38.5,15 c0,0.83-0.67,1.5-1.5,1.5s-1.5-0.67-1.5-1.5s0.67-1.5,1.5-1.5S38.5,14.17,38.5,15z M22,15c0-6.07-4.93-11-11-11S0,8.93,0,15 s4.93,11,11,11S22,21.07,22,15z M15.49,15.71l3.46,1.21c-0.181,0.74-0.46,1.48-0.87,2.17c-0.39,0.69-0.89,1.311-1.44,1.84 L13.86,18.53c0.42-0.34,0.79-0.761,1.08-1.261C15.22,16.78,15.4,16.25,15.49,15.71z M11,6.82c0.8,0,1.58,0.12,2.32,0.33l-0.69,3.6 c-0.51-0.19-1.06-0.29-1.63-0.29s-1.12,0.1-1.63,0.29l-0.69-3.6C9.42,6.94,10.2,6.82,11,6.82z M5.36,20.93 C4.81,20.4,4.31,19.78,3.92,19.09C3.51,18.4,3.23,17.66,3.05,16.92l3.46-1.21c0.09,0.54,0.271,1.07,0.55,1.56 c0.29,0.5,0.66,0.921,1.08,1.261L5.36,20.93z M7.5,15c0-1.93,1.57-3.5,3.5-3.5s3.5,1.57,3.5,3.5s-1.57,3.5-3.5,3.5S7.5,16.93,7.5,15 z" />
    <radialGradient
       inkscape:collect="always"
       xlink:href="#linearGradient431"
       id="radialGradient755"
       cx="991.40479"
       cy="770.4519"
       fx="991.40479"
       fy="770.4519"
       r="460.91883"
       gradientTransform="matrix(-0.25202169,-0.21395416,0.76719579,-0.90369811,650.17419,1694.8991)"
       gradientUnits="userSpaceOnUse" />
    <radialGradient
       inkscape:collect="always"
       xlink:href="#linearGradient1047"
       id="radialGradient1049"
       cx="111.42986"
       cy="828.08417"
       fx="111.42986"
       fy="828.08417"
       r="460.91883"
       gradientTransform="matrix(0.29270136,-0.08602213,0.34010196,1.1572409,-202.81911,-128.34268)"
       gradientUnits="userSpaceOnUse" />
  </defs>
  <g
     inkscape:label="Camada 1"
     inkscape:groupmode="layer"
     id="layer1">
    <g
       id="g6910">
      <path
         style="fill:#9a9996;stroke:none;stroke-width:1px;stroke-linecap:butt;stroke-linejoin:miter;stroke-opacity:1"
         d="M 540,540.19345 V 336.51586 L 359.82665,241.10619 c -22.74223,-11.79805 -44.67739,21.69364 -20.62922,38.10656 l 169.08025,90.31358 v 52.38551 h -62.43733 v 58.52566 l 35.9251,17.50038 h 19.7266 v 25.39868 l -63.68071,17.0632 z"
         id="path6235"
         sodipodi:nodetypes="ccccccccccccc" />
      <path
         style="fill:#9a9996;stroke:none;stroke-width:1px;stroke-linecap:butt;stroke-linejoin:miter;stroke-opacity:1"
         d="M 540,540.19345 V 336.51586 l 180.17335,-95.40967 c 22.74223,-11.79805 44.67739,21.69364 20.62922,38.10656 l -169.08025,90.31358 v 52.38551 h 62.43733 v 58.52566 l -35.9251,17.50038 h -19.7266 v 25.39868 l 63.68071,17.0632 z"
         id="path6906"
         sodipodi:nodetypes="ccccccccccccc" />
    </g>
    <g
       id="g7188">
      <path
         id="path6942"
         style="opacity:1;fill:#241f31;stroke:none"
         d="m 349.84375,210.38477 a 49.640079,49.112091 0 0 0 -49.63867,49.11132 49.640079,49.112091 0 0 0 49.63867,49.11329 49.640079,49.112091 0 0 0 49.64063,-49.11329 49.640079,49.112091 0 0 0 -49.64063,-49.11132 z m -0.13086,27.99023 a 21.930935,21.459385 0 0 1 21.93164,21.45898 21.930935,21.459385 0 0 1 -21.93164,21.45899 21.930935,21.459385 0 0 1 -21.93164,-21.45899 21.930935,21.459385 0 0 1 21.93164,-21.45898 z" />
      <path
         id="path7155"
         style="opacity:1;fill:#241f31;stroke:none"
         d="m 729.84375,210.38477 a 49.640079,49.112091 0 0 0 -49.63867,49.11132 49.640079,49.112091 0 0 0 49.63867,49.11329 49.640079,49.112091 0 0 0 49.64063,-49.11329 49.640079,49.112091 0 0 0 -49.64063,-49.11132 z m -0.13086,27.99023 a 21.930935,21.459385 0 0 1 21.93164,21.45898 21.930935,21.459385 0 0 1 -21.93164,21.45899 21.930935,21.459385 0 0 1 -21.93164,-21.45899 21.930935,21.459385 0 0 1 21.93164,-21.45898 z" />
    </g>
    <path
       id="path39"
       style="fill:#9141ac;fill-rule:evenodd"
       d="m 1080,540 c 0,143.2169 -56.8927,280.56802 -158.16234,381.83766 C 820.56802,1023.1073 683.2169,1080 540,1080 396.7831,1080 259.43198,1023.1073 158.16234,921.83766 56.892694,820.56802 0,683.2169 0,540 Z"
       sodipodi:nodetypes="cssscc" />
    <path
       id="path7297"
       style="fill:url(#radialGradient755);fill-rule:evenodd;fill-opacity:1"
       d="m 1080,540 c 0,143.2169 -56.8927,280.56802 -158.16234,381.83766 C 820.56802,1023.1073 683.2169,1080 540,1080 396.7831,1080 259.43198,1023.1073 158.16234,921.83766 540,1080 866.62499,960.14913 858.85894,538.77562 Z"
       sodipodi:nodetypes="cssccc" />
    <g
       id="g6118">
      <g
         id="g5733"
         transform="translate(-3.5265099,-14.412187)">
        <path
           id="rect4860"
           style="opacity:1;fill:#3d3846"
           d="m 449.13882,489.95718 h 188.6397 v 4.39289 l -38.40866,18 h -114.0779 l -36.15314,-18 z"
           sodipodi:nodetypes="ccccccc" />
        <g
           id="g5725">
          <rect
             style="opacity:1;fill:#77767b"
             id="rect5303"
             width="188.77538"
             height="53.482876"
             x="449.13882"
             y="436.4743" />
          <g
             id="g5719">
            <rect
               style="opacity:1;fill:#33d17a"
               id="rect5515"
               width="6.2718444"
               height="6.0303421"
               x="607.41534"
               y="445.40549" />
            <rect
               style="opacity:1;fill:#e01b24"
               id="rect5679"
               width="6.2718444"
               height="6.0303421"
               x="619.41534"
               y="445.40549" />
          </g>
        </g>
      </g>
      <g
         id="g6106">
        <path
           style="fill:none;stroke:#63452c;stroke-width:1px;stroke-linecap:butt;stroke-linejoin:miter;stroke-opacity:1"
           d="M 280.2773,336.25743 445.61231,475.54499"
           id="path5768"
           sodipodi:nodetypes="cc" />
        <path
           style="fill:none;stroke:#63452c;stroke-width:1px;stroke-linecap:butt;stroke-linejoin:miter;stroke-opacity:1"
           d="M 799.61231,336.25743 634.2773,475.54499"
           id="path6022"
           sodipodi:nodetypes="cc" />
      </g>
    </g>
    <g
       id="g4802"
       transform="translate(-7.525385)">
      <g
         id="g4780">
        <path
           id="path4752"
           style="opacity:1;fill:#63452c;stroke-width:0.66745"
           d="M 357.5301,157.20112 A 105.35504,102.37416 0 0 0 252.16994,259.58087 105.35504,102.37416 0 0 0 357.5301,361.95124 105.35504,102.37416 0 0 0 462.88085,259.58087 105.35504,102.37416 0 0 0 357.5301,157.20112 Z m 0,53.24125 a 50.569811,49.139012 0 0 1 50.56267,49.1385 50.569811,49.139012 0 0 1 -50.56267,49.13853 50.569811,49.139012 0 0 1 -50.57214,-49.13853 50.569811,49.139012 0 0 1 50.57214,-49.1385 z" />
        <g
           id="g4774">
          <path
             id="path3930"
             style="opacity:1;fill:#c0bfbc"
             d="M 357.52539,103.97852 A 155.59776,155.59776 0 0 0 201.92773,259.57617 155.59776,155.59776 0 0 0 357.52539,415.17383 155.59776,155.59776 0 0 0 513.12305,259.57617 155.59776,155.59776 0 0 0 357.52539,103.97852 Z m 0.70313,40.83984 c 10.8504,-0.0935 21.52079,1.30441 32.01757,4.13476 l -9.02148,50.78321 c -14.20664,-5.76536 -29.60199,-4.95792 -45.84375,0.53711 l -10.25,-50.64453 c 11.21792,-3.1323 22.24726,-4.71702 33.09766,-4.81055 z m -0.70313,65.56641 a 49.403324,49.190098 0 0 1 49.40234,49.1914 49.403324,49.190098 0 0 1 -49.40234,49.18945 49.403324,49.190098 0 0 1 -49.4043,-49.18945 49.403324,49.190098 0 0 1 49.4043,-49.1914 z m -63.63672,58.50976 c 1.93788,15.20896 10.18707,28.23159 22.9375,39.69531 l -39.11914,33.75782 C 261.24985,325.8621 250.55679,306.99533 245.20117,285.92188 Z m 126.7793,0.84766 49.11719,16.04687 c -5.60961,22.6085 -16.23751,41.51341 -31.51172,56.98828 l -39.73633,-32.88476 c 12.01954,-9.51833 18.90516,-23.31041 22.13086,-40.15039 z" />
          <path
             id="circle4064"
             style="opacity:1;fill:#c0bfbc;stroke-width:0.138218"
             d="m 357.52539,238.375 a 21.817299,21.200008 0 0 0 -21.81836,21.20117 21.817299,21.200008 0 0 0 21.81836,21.19922 21.817299,21.200008 0 0 0 21.81641,-21.19922 21.817299,21.200008 0 0 0 -21.81641,-21.20117 z m 0,11.02539 a 10.472178,10.175883 0 0 1 10.4707,10.17578 10.472178,10.175883 0 0 1 -10.4707,10.17578 10.472178,10.175883 0 0 1 -10.47266,-10.17578 10.472178,10.175883 0 0 1 10.47266,-10.17578 z" />
        </g>
      </g>
      <g
         id="g4790"
         transform="rotate(-90,547.52539,69.57618)">
        <path
           id="path4782"
           style="opacity:1;fill:#63452c;stroke-width:0.66745"
           d="M 357.5301,157.20112 A 105.35504,102.37416 0 0 0 252.16994,259.58087 105.35504,102.37416 0 0 0 357.5301,361.95124 105.35504,102.37416 0 0 0 462.88085,259.58087 105.35504,102.37416 0 0 0 357.5301,157.20112 Z m 0,53.24125 a 50.569811,49.139012 0 0 1 50.56267,49.1385 50.569811,49.139012 0 0 1 -50.56267,49.13853 50.569811,49.139012 0 0 1 -50.57214,-49.13853 50.569811,49.139012 0 0 1 50.57214,-49.1385 z" />
        <g
           id="g4788">
          <path
             id="path4784"
             style="opacity:1;fill:#c0bfbc"
             d="M 357.52539,103.97852 A 155.59776,155.59776 0 0 0 201.92773,259.57617 155.59776,155.59776 0 0 0 357.52539,415.17383 155.59776,155.59776 0 0 0 513.12305,259.57617 155.59776,155.59776 0 0 0 357.52539,103.97852 Z m 0.70313,40.83984 c 10.8504,-0.0935 21.52079,1.30441 32.01757,4.13476 l -9.02148,50.78321 c -14.20664,-5.76536 -29.60199,-4.95792 -45.84375,0.53711 l -10.25,-50.64453 c 11.21792,-3.1323 22.24726,-4.71702 33.09766,-4.81055 z m -0.70313,65.56641 a 49.403324,49.190098 0 0 1 49.40234,49.1914 49.403324,49.190098 0 0 1 -49.40234,49.18945 49.403324,49.190098 0 0 1 -49.4043,-49.18945 49.403324,49.190098 0 0 1 49.4043,-49.1914 z m -63.63672,58.50976 c 1.93788,15.20896 10.18707,28.23159 22.9375,39.69531 l -39.11914,33.75782 C 261.24985,325.8621 250.55679,306.99533 245.20117,285.92188 Z m 126.7793,0.84766 49.11719,16.04687 c -5.60961,22.6085 -16.23751,41.51341 -31.51172,56.98828 l -39.73633,-32.88476 c 12.01954,-9.51833 18.90516,-23.31041 22.13086,-40.15039 z" />
          <path
             id="path4786"
             style="opacity:1;fill:#c0bfbc;stroke-width:0.138218"
             d="m 357.52539,238.375 a 21.817299,21.200008 0 0 0 -21.81836,21.20117 21.817299,21.200008 0 0 0 21.81836,21.19922 21.817299,21.200008 0 0 0 21.81641,-21.19922 21.817299,21.200008 0 0 0 -21.81641,-21.20117 z m 0,11.02539 a 10.472178,10.175883 0 0 1 10.4707,10.17578 10.472178,10.175883 0 0 1 -10.4707,10.17578 10.472178,10.175883 0 0 1 -10.47266,-10.17578 10.472178,10.175883 0 0 1 10.47266,-10.17578 z" />
        </g>
      </g>
    </g>
    <path
       id="path274"
       style="fill:#99c1f1;fill-rule:evenodd;opacity:0.25"
       d="M 1080,540 C 1080,396.7831 1023.1073,259.43198 921.83766,158.16234 820.56802,56.8927 683.2169,0 540,0 396.7831,0 259.43198,56.8927 158.16234,158.16234 56.892694,259.43198 0,396.7831 0,540 Z"
       sodipodi:nodetypes="cssscc" />
    <path
       id="path1163"
       style="opacity:0.64242788;fill:url(#linearGradient1674);fill-opacity:1;fill-rule:evenodd;stroke-width:0.961929"
       d="M 891.37375,158.16234 C 797.66815,56.8927 670.57607,0 538.05634,0 405.5366,0 278.44454,56.8927 184.73893,158.16234 c -146.348861,195.4551 852.98367,182.12134 706.63482,0 z"
       sodipodi:nodetypes="cscc" />
    <path
       id="path7968"
       style="fill:url(#radialGradient1049);fill-rule:evenodd;opacity:0.31311674;fill-opacity:1"
       d="m -1.83766,540 c 0,143.2169 56.8927,280.56802 158.16234,381.83766 C 257.59432,1023.1073 394.94544,1080 538.16234,1080 681.37924,1080 818.73036,1023.1073 920,921.83766 538.16234,1080 211.53735,960.14913 219.3034,538.77562 Z"
       sodipodi:nodetypes="cssccc" />
    <path
       id="path2260"
       style="fill:url(#linearGradient3427);fill-rule:evenodd;stroke-width:0.410484;fill-opacity:1"
       d="m 830.68084,914.93963 c 42.19127,35.01366 -31.36158,85.76047 -87.18555,116.71537 -55.82397,30.9547 -131.53752,48.345 -210.48454,48.345 -78.94701,0 -154.66056,-17.3903 -210.48453,-48.345 -55.82398,-30.9549 -129.37682,-81.70171 -87.18555,-116.71537 110.25109,-91.49513 485.08908,-91.49513 595.34017,0 z"
       sodipodi:nodetypes="asssaa" />
    <ellipse
       style="opacity:0.8;fill:#ffffff;stroke-width:1.18297"
       id="path3595"
       cx="308.62192"
       cy="-95.225899"
       rx="28.744024"
       ry="51.982388"
       transform="rotate(50.177207)" />
    <ellipse
       style="opacity:0.8;fill:#ffffff;stroke-width:1.07325"
       id="ellipse3717"
       cx="317.64398"
       cy="122.92175"
       rx="26.078011"
       ry="47.161011"
       transform="rotate(35.417768)"
       inkscape:transform-center-x="1.3445578"
       inkscape:transform-center-y="-1.8908408" />
  </g>
</svg>
